<?xml version="1.0" encoding="utf-8"?>
<!-- Generator: Adobe Illustrator 22.0.1, SVG Export Plug-In . SVG Version: 6.00 Build 0)  -->
<svg version="1.1" id="Layer_1" xmlns="http://www.w3.org/2000/svg" xmlns:xlink="http://www.w3.org/1999/xlink" x="0px" y="0px"
	 viewBox="0 0 838 668" style="enable-background:new 0 0 838 668;" xml:space="preserve">
<style type="text/css">
	.st0{fill:url(#SVGID_1_);fill-opacity:0.3;stroke:#000000;stroke-dasharray:3;}
	.st1{fill:url(#SVGID_2_);fill-opacity:0.1;stroke:#000000;stroke-dasharray:3;}
	.st2{font-family:'ArialMT';}
	.st3{font-size:12px;}
	.st4{fill:none;stroke:#000000;stroke-miterlimit:10;}
	.st5{fill:#C2B59B;stroke:#000000;stroke-miterlimit:10;}
	.st6{font-family:'MyriadPro-Regular';}
	.st7{fill:none;stroke:#000000;}
	.st8{font-size:18px;}
</style>
<g>
	<radialGradient id="SVGID_1_" cx="487.6687" cy="349.8967" r="192.9438" gradientUnits="userSpaceOnUse">
		<stop  offset="0" style="stop-color:#FFFFFF"/>
		<stop  offset="1" style="stop-color:#FBB040"/>
	</radialGradient>
	<circle class="st0" cx="487.7" cy="349.9" r="192.9"/>
	<radialGradient id="SVGID_2_" cx="487.7855" cy="350.7275" r="186.3746" gradientUnits="userSpaceOnUse">
		<stop  offset="0" style="stop-color:#FFFFFF"/>
		<stop  offset="1" style="stop-color:#FBB040"/>
	</radialGradient>
	<circle class="st1" cx="487.8" cy="350.7" r="186.4"/>
</g>
<text transform="matrix(1 0 0 1 172 262.0001)"><tspan x="0" y="0" class="st2 st3">L-Methionine</tspan><tspan x="0" y="14.4" class="st2 st3">SAM</tspan><tspan x="0" y="28.8" class="st2 st3">SAH</tspan><tspan x="0" y="43.2" class="st2 st3">ATP</tspan><tspan x="0" y="57.6" class="st2 st3">Pyruvate</tspan><tspan x="0" y="72" class="st2 st3">Phosphoenolpyruvate</tspan><tspan x="0" y="86.4" class="st2 st3">Acetate</tspan><tspan x="0" y="100.8" class="st2 st3">Citrate</tspan></text>
<text transform="matrix(1 0 0 1 392.4998 387.9839)" class="st2 st3">L-Methionine</text>
<g>
	<g>
		<line class="st4" x1="466.5" y1="384" x2="516.6" y2="384"/>
		<g>
			<polygon points="513.8,387.7 515.3,384 513.8,380.3 522.5,384 			"/>
		</g>
	</g>
</g>
<text transform="matrix(1 0 0 1 482.5354 401.5529)" class="st2 st3">MAT</text>
<g>
	<ellipse class="st5" cx="299.5" cy="344.4" rx="11.5" ry="5.5"/>
	<ellipse class="st5" cx="299.5" cy="355.9" rx="11.5" ry="5.5"/>
</g>
<g>
	<g>
		<line class="st4" x1="269.6" y1="349.9" x2="332.4" y2="349.9"/>
		<g>
			<polygon points="262.5,349.9 272.4,354 270.1,349.9 272.4,345.8 			"/>
		</g>
		<g>
			<polygon points="339.5,349.9 329.6,354 331.9,349.9 329.6,345.8 			"/>
		</g>
	</g>
</g>
<text transform="matrix(1 0 0 1 421.5 256)" class="st6 st3">Pyruvate</text>
<text transform="matrix(1 0 0 1 336.5 256)" class="st6 st3">PEP</text>
<text transform="matrix(1 0 0 1 421.5 299)" class="st6 st3">Acetate</text>
<text transform="matrix(1 0 0 1 421.5 340.2446)" class="st6 st3">Citrate</text>
<text transform="matrix(1 0 0 1 524.2921 299)" class="st6 st3">Acetyl-CoA</text>
<g>
	<g>
		<line class="st7" x1="471.5" y1="256" x2="514.9" y2="288.7"/>
		<g>
			<polygon points="520.5,293 510.1,290.2 514.4,288.4 515,283.8 			"/>
		</g>
	</g>
</g>
<g>
	<g>
		<line class="st7" x1="463.5" y1="296" x2="512.4" y2="296"/>
		<g>
			<polygon points="519.5,296 509.6,300.1 511.9,296 509.6,291.9 			"/>
		</g>
	</g>
</g>
<g>
	<g>
		<line class="st7" x1="469" y1="336" x2="512.4" y2="303.3"/>
		<g>
			<polygon points="518,299 512.5,308.2 511.9,303.6 507.6,301.8 			"/>
		</g>
	</g>
</g>
<text transform="matrix(1 0 0 1 488.5 334)" class="st6 st3">ACLY</text>
<text transform="matrix(1 0 0 1 466.5 293)" class="st6 st3">ACSS2</text>
<text transform="matrix(1 0 0 1 491.5 266.502)" class="st6 st3">PDC</text>
<g>
	<g>
		<line class="st7" x1="360.5" y1="252" x2="409.4" y2="252"/>
		<g>
			<polygon points="416.5,252 406.6,256.1 408.9,252 406.6,247.9 			"/>
		</g>
	</g>
</g>
<text transform="matrix(1 0 0 1 368.5 246.502)" class="st6 st3">PKM2</text>
<text transform="matrix(1 0 0 1 540.7079 387.9836)" class="st6 st3">SAM</text>
<text transform="matrix(1 0 0 1 228.5 480.9999)" class="st6 st8">Cytosol</text>
<text transform="matrix(1 0 0 1 384.5 481.0001)" class="st6 st8">Nucleus</text>
<text transform="matrix(1 0 0 1 587 372)"><tspan x="0" y="0" class="st6 st3">Mono-, di-, tri-</tspan><tspan x="0" y="14.4" class="st6 st3">lysine</tspan><tspan x="0" y="28.8" class="st6 st3">methylation</tspan></text>
<text transform="matrix(1 0 0 1 587 293)"><tspan x="0" y="0" class="st6 st3">Lysine</tspan><tspan x="0" y="14.4" class="st6 st3">acetylation</tspan></text>
</svg>
